<?xml version="1.0" encoding="UTF-8"?>
<svg id="Capa_1" data-name="Capa 1" xmlns="http://www.w3.org/2000/svg" viewBox="0 0 147 147">
  <defs>
    <style>
      .cls-1 {
        fill: #fff;
      }
    </style>
  </defs>
  <path class="cls-1" d="M84.35,73.54c0,5.97-4.89,10.8-10.88,10.79-5.96-.02-10.79-4.9-10.78-10.9,0-5.93,4.93-10.79,10.93-10.75,6,.04,10.77,5,10.73,10.87Z"/>
  <path class="cls-1" d="M99.51,58.02c0-1.64-.39-3.21-1.18-4.64-2.11-3.83-5.35-5.85-9.73-5.89-5.35-.04-10.69,0-16.04,0-4.77,0-9.54-.03-14.31,0-3.64,.03-6.55,1.57-8.71,4.48-1.47,1.98-2.08,4.24-2.08,6.7,.02,4.96,0,9.92,0,14.88,0,1.49,0,2.99,0,4.48,0,3.71-.02,7.42,.03,11.13,.02,1.94,.61,3.76,1.7,5.37,2.2,3.28,5.29,4.98,9.24,4.98,10.04,.02,20.09,0,30.13,0,.62,0,1.25-.06,1.87-.15,5.08-.74,9.06-5.28,9.07-10.42,.02-10.31,.01-20.62,0-30.92Zm-26.05,31.78c-8.83-.03-16.23-7.06-16.23-16.29,0-9.2,7.35-16.3,16.29-16.3,9.19,0,16.33,7.45,16.3,16.29,0,9.05-7.29,16.34-16.36,16.31Zm17.44-30.4c-2.07,0-3.37-1.77-3.25-3.31-.08-1.6,1.3-3.23,3.25-3.25,1.82-.01,3.29,1.49,3.27,3.32-.02,1.8-1.45,3.23-3.27,3.23Z"/>
  <path class="cls-1" d="M74.3,13.5c-33.79-.42-60.86,26.91-60.8,59.98-.05,33.13,26.78,59.66,59.31,60.02,33.3,.36,60.68-26.49,60.69-59.94,.02-33.26-26.76-59.66-59.2-60.06Zm30.7,76.12c0,4.78-1.84,8.75-5.49,11.84-2.68,2.27-5.82,3.49-9.34,3.5-11.1,.04-22.2,.09-33.3-.02-5.66-.06-9.95-2.78-12.86-7.63-1.4-2.35-2.01-4.93-2.01-7.66,0-5.39,0-10.79,0-16.18s0-10.79,0-16.18c0-4.17,1.45-7.78,4.37-10.75,2.92-2.96,6.5-4.52,10.67-4.54,10.96-.03,21.91-.02,32.87,0,6.94,.01,12.87,4.82,14.56,11.26,.35,1.34,.53,2.69,.53,4.07,0,10.76,.02,21.53,0,32.29Z"/>
</svg>