<?xml version="1.0" encoding="UTF-8"?>
<svg id="Capa_3" data-name="Capa 3" xmlns="http://www.w3.org/2000/svg" viewBox="0 0 274 74">
  <defs>
    <style>
      .cls-1 {
        fill: #f182a0;
      }

      .cls-2 {
        fill: #11bebe;
      }
    </style>
  </defs>
  <g>
    <g>
      <path class="cls-1" d="M211.86,40.93c3.4-5.19,3.33-9.96,2.14-13.73,1.66-1.63,3.53-2.57,4.62-3.02,.51-.21,1.08,.06,1.25,.58,.93,2.92,2.82,12.06-8,16.17Z"/>
      <path class="cls-1" d="M208.95,40.93c-.82,1.23-1.86,2.49-3.13,3.76-1.24-1.24-2.25-2.46-3.06-3.66-3.39-4.99-3.38-9.58-2.24-13.23,1.16-3.7,3.48-6.42,4.63-7.6,.37-.38,.97-.38,1.34,0,1.13,1.16,3.4,3.82,4.58,7.44,1.19,3.65,1.25,8.27-2.12,13.29Z"/>
      <path class="cls-1" d="M199.79,40.9s-.02,.05-.03,.08c-10.96-4.09-9.06-13.29-8.13-16.22,.17-.52,.74-.79,1.25-.58,1.09,.45,2.99,1.4,4.65,3.06-1.15,3.77-1.15,8.51,2.26,13.66Z"/>
    </g>
    <path class="cls-2" d="M225.89,28.6c-3.23-8-11.52-13.53-20.14-13.41-8.63-.11-16.91,5.42-20.14,13.41-5.97,14.32,4.63,30.21,20.14,30.21,15.51,0,26.11-15.9,20.14-30.21Zm-9.8,25.09c1.45-1.18,2.7-2.62,3.68-4.23,1.34-2.21,2.17-4.77,2.33-7.51-.13-.63-.76-1.07-1.42-.93-6.03,1.25-14.93,9.58-14.93,9.58,0,0-8.9-8.33-14.93-9.58-.66-.14-1.28,.3-1.42,.93,.16,2.74,.99,5.3,2.33,7.51,.98,1.63,2.25,3.07,3.72,4.26-9.37-5.47-13.61-18.12-7.25-28.51,3.62-6.01,10.51-9.85,17.54-9.8,7.03-.05,13.92,3.79,17.54,9.81,6.33,10.38,2.14,22.97-7.19,28.46Z"/>
  </g>
  <g>
    <path class="cls-2" d="M102.03,44.55h-11.9c.12,2.14,.63,3.8,1.5,4.97,.88,1.17,2.07,1.76,3.57,1.76,1.03,0,1.87-.21,2.54-.62,.66-.41,1.42-1.21,2.27-2.41,.15-.22,.41-.34,.79-.34,.08,0,.16,0,.24,.02,1.7,.22,2.36,2.31,1.25,3.61-.53,.61-1.14,1.14-1.85,1.57-1.47,.9-3.21,1.34-5.24,1.34-3.03,0-5.42-.95-7.16-2.86-1.74-1.9-2.61-4.51-2.61-7.82s.88-5.88,2.63-7.77c1.75-1.89,4.16-2.84,7.22-2.84,2.81,0,4.98,.81,6.52,2.43,1.54,1.62,2.31,3.9,2.31,6.83,0,.03,0,.05,0,.08-.02,1.13-.94,2.05-2.08,2.05Zm-2.55-2.76c0-3.71-1.44-5.57-4.32-5.57-1.43,0-2.56,.47-3.4,1.4-.84,.93-1.36,2.32-1.56,4.16h9.28Z"/>
    <path class="cls-2" d="M121.12,33.85c.51,.46,.77,1.16,.77,2.1,0,.36-.05,.71-.15,1.05-.1,.34-.24,.62-.41,.82-.28-.18-.61-.31-1-.38-.39-.08-.91-.11-1.56-.11-1.63,0-2.88,.57-3.76,1.7-.88,1.13-1.32,2.76-1.32,4.87v10.55h0c-2.51,0-4.55-2.07-4.55-4.63v-14.09c0-1.28,1.02-2.31,2.27-2.31h0c1.26,0,2.27,1.04,2.27,2.31v.82c.61-1.23,1.45-2.16,2.52-2.76,.84-.48,1.8-.67,2.76-.63s1.68,.26,2.14,.68Z"/>
    <path class="cls-2" d="M168.34,54.28c-.26,0-.99,.04-2.18,.11-.61,.05-.99,.07-1.13,.07-.49,0-.89-.09-1.2-.28-.31-.19-.58-.47-.81-.84l-3.35-7.96c-.35-.61-.8-1.05-1.34-1.32-.54-.27-1.32-.37-2.33-.3l-1.16,.07v10.46h0c-2.35,0-4.26-1.91-4.26-4.26V22.66c0-1.18,.95-2.13,2.13-2.13h0c1.18,0,2.13,.95,2.13,2.13v18.03l.99-.04c.75-.05,1.32-.19,1.71-.44s.77-.7,1.15-1.36l3.2-11.11c.25-1.01,1.16-1.73,2.21-1.73h0c1.52,0,2.61,1.46,2.18,2.92l-3.78,10.98c-.31,.52-.58,.92-.83,1.21-.25,.29-.57,.55-.97,.76,.63,.16,1.16,.41,1.57,.74,.41,.33,.78,.76,1.11,1.3l4.97,10.35Z"/>
    <path class="cls-2" d="M143.81,35.13c-.07-.5-.31-.94-.63-1.27-.41-.42-.98-.69-1.61-.69-1.26,0-2.27,1.46-2.27,2.76v1.24c-.43-.5-.76-.88-.96-1.15-1.46-1.48-3.17-2.22-5.12-2.22-2.78,0-5.02,1.05-6.72,3.17-1.63,2.02-2.44,4.17-2.44,7.27,0,2.75,.81,5.16,2.42,7.22,1.7,2.17,3.77,3,6.26,3,1.01,0,2.64-.4,3.65-.96,1.87-.98,2.53-2.16,2.57-2.16,.84,1.71,2.49,3.12,4.36,3.12h.52s0,0,0,0v-18.94c0-.14,0-.26-.03-.38Zm-6.3,12.95c-1.01,1.33-2.26,1.99-3.76,1.99s-2.8-.4-3.82-1.7c-.99-1.25-1.48-2.3-1.48-3.99s.49-3.19,1.48-4.44c1.02-1.32,2.3-1.97,3.84-1.97s2.8,.65,3.78,1.98c.94,1.23,1.24,2.28,1.24,4.01s-.33,2.87-1.28,4.11Z"/>
    <path class="cls-2" d="M80.4,23.15v31.3c-1.65,0-2.94-.67-3.81-1.76-.87-1.09-1.34-2.59-1.34-4.25v-10.31c0-1.2,.02-2.51,.06-3.95,.04-1.43,.16-1.37,.35-3.23-.73,1.29-7.76,10.77-9.75,13.45-.34,.45-.53,.7-.53,.7-.1,.13-.2,.25-.31,.35-.46,.36-1.04,.56-1.66,.56-.59,0-1.14-.18-1.58-.5-.13-.11-.24-.24-.35-.38,0,0-.21-.28-.58-.76-2.1-2.77-9.26-12.26-9.99-13.47,.19,1.87,.31,1.81,.35,3.25,.04,1.45,.06,2.77,.06,3.97v16.32h-.42c-2.93,0-4.48-2.39-4.48-5.34V23.04s0-.07,0-.11c.03-1,.53-1.74,1.19-2.12,.06-.04,.13-.07,.2-.1,.05-.02,.1-.04,.15-.06,.16-.05,.33-.09,.5-.11,.07,0,.14-.01,.21-.01h.02s.05,0,.07,0c.08,0,.16,.02,.24,.03h0c.52,.1,1.04,.4,1.46,.96l.36,.53,12.73,18.43,12.33-18.2,.42-.62c1.4-1.88,3.94-.96,4.06,1.33,0,.05,0,.12,0,.17Z"/>
    <path class="cls-2" d="M171.96,28.79v-.04c0-1.48,1.2-2.67,2.68-2.67h0c1.48,0,2.68,1.2,2.68,2.67v.04c0,1.48-1.2,2.67-2.68,2.67h0c-1.48,0-2.68-1.2-2.68-2.67Zm2.68,7.71h0c1.27,0,2.29,1.03,2.29,2.29v15.43c0,.12-.1,.23-.23,.23h0c-2.41,0-4.36-1.95-4.36-4.36v-11.3c0-1.26,1.03-2.29,2.29-2.29Z"/>
  </g>
</svg>