<?xml version="1.0" encoding="UTF-8"?>
<svg id="Capa_2" data-name="Capa 2" xmlns="http://www.w3.org/2000/svg" viewBox="0 0 147 147">
  <defs>
    <style>
      .cls-1 {
        fill: #fff;
      }
    </style>
  </defs>
  <g>
    <path class="cls-1" d="M13.5,73.48c.07-33.17,26.83-60.02,60.07-59.98,33.45,.04,59.99,27.19,59.93,60.07-.06,33.17-26.94,59.97-60.07,59.93-32.87-.04-59.87-26.62-59.93-60.02Zm15.55,27.03h.48c9.34,0,18.67,0,28.01,0,1.07,0,2.13-.06,3.19-.21,2.1-.3,4.13-.84,6.05-1.75,4.36-2.06,7.09-5.43,8.07-10.17,.59-2.89,.58-5.8,.03-8.7-.29-1.54-.78-3.02-1.55-4.39-1.62-2.88-4.08-4.46-7.37-4.72-.19-.02-.38-.04-.57-.06,.14-.07,.29-.1,.43-.13,2.25-.53,4.14-1.62,5.55-3.49,1.07-1.43,1.63-3.06,1.86-4.81,.26-1.99,.17-3.97-.27-5.92-.96-4.33-3.44-7.46-7.5-9.29-2.4-1.09-4.95-1.52-7.56-1.52-9.49-.01-18.99,0-28.48,0h-.35v55.16Zm88.77-17.19c.02-.09,.03-.12,.04-.15,.02-.26,.05-.51,.07-.77,.16-2.47,.03-4.93-.39-7.38-.38-2.2-1.02-4.32-2.02-6.32-1.66-3.32-4.12-5.85-7.49-7.45-2.51-1.19-5.19-1.71-7.95-1.83-1.85-.09-3.7-.02-5.54,.25-2.03,.3-3.99,.84-5.85,1.72-3.6,1.69-6.31,4.33-8.19,7.81-2.38,4.43-3.39,9.17-2.98,14.19,.2,2.48,.78,4.87,1.76,7.16,1.4,3.26,3.53,5.92,6.53,7.85,2.57,1.65,5.4,2.53,8.4,2.97,1.66,.24,3.33,.3,5,.31,2.26,.01,4.5-.25,6.7-.79,2-.5,3.91-1.23,5.66-2.35,2.12-1.36,3.75-3.16,4.77-5.48,.82-1.87,1.14-3.84,1.17-5.87,0-.05-.02-.11-.03-.15-.37-.07-9.41-.05-9.67,.02-.01,.1-.02,.2-.03,.3-.14,1.5-.82,2.71-1.96,3.67-.81,.67-1.74,1.1-2.74,1.39-1.21,.36-2.46,.48-3.72,.52-1.47,.05-2.91-.11-4.31-.58-2.25-.77-3.95-2.17-4.93-4.38-.63-1.42-.85-2.92-.87-4.46,0-.05,.02-.1,.04-.18h28.53Zm-31.03-34.71v6.74c.52,.07,22.49,.05,22.72-.03v-6.71h-22.72Z"/>
    <path class="cls-1" d="M41.7,90.71v-14.74h.41c5.12,0,10.23-.02,15.35,0,2.43,.01,4.18,1.16,5.26,3.33,.38,.77,.6,1.6,.71,2.45,.18,1.39,.18,2.78-.12,4.15-.24,1.1-.68,2.11-1.46,2.95-.86,.92-1.94,1.44-3.16,1.66-.66,.12-1.34,.19-2.01,.19-4.86,.02-9.72,0-14.58,0-.12,0-.24,0-.41,0Z"/>
    <path class="cls-1" d="M41.7,67.47v-12.3c.13,0,.26-.01,.39-.01,3.28,0,6.55,0,9.83,0,1.85,0,3.7,0,5.55,0,1.22,0,2.19,.5,2.95,1.43,.59,.72,.91,1.57,1.06,2.48,.29,1.77,.22,3.53-.25,5.27-.12,.44-.31,.87-.53,1.27-.57,1.02-1.47,1.58-2.61,1.75-.5,.07-1,.11-1.51,.11-4.84,0-9.67,0-14.51,0-.12,0-.24,0-.38,0Z"/>
  </g>
  <path class="cls-1" d="M107.22,75.95h-18.02c0-.1-.02-.19,0-.27,.48-2.15,1.38-4.07,2.96-5.64,1.45-1.45,3.22-2.24,5.25-2.49,1.28-.15,2.55-.13,3.81,.16,2.42,.56,4.13,1.99,5.15,4.24,.54,1.2,.83,2.46,.89,3.77,0,.04,0,.09,0,.13,0,.02-.02,.04-.04,.09Z"/>
</svg>