<?xml version="1.0" encoding="UTF-8"?>
<svg id="Capa_1" data-name="Capa 1" xmlns="http://www.w3.org/2000/svg" viewBox="0 0 147 147">
  <defs>
    <style>
      .cls-1 {
        fill: #fff;
      }
    </style>
  </defs>
  <path class="cls-1" d="M74.41,13.51c-33.89-.47-60.57,26.82-60.91,59.3-.35,33.47,26.67,60.42,59.45,60.69,33.28,.28,60.56-26.64,60.55-59.96,.03-33.06-26.58-59.58-59.09-60.03Zm.26,51.74c0,.14,.02,.29,.04,.56h.9c4.26,0,8.53,0,12.79,0,1.16,0,2.05,.45,2.61,1.48,.31,.57,.36,1.18,.27,1.82-.33,2.55-.66,5.11-.98,7.66-.18,1.46-1.28,2.48-2.79,2.48-3.37,.01-6.75,0-10.12,0h-2.74v33.55c-4.54,.33-8.96,.2-13.4-.76v-32.75c-.31-.02-.56-.04-.82-.04-2.87,0-5.73,0-8.6,0-.22,0-.43,0-.65,0-.86-.07-1.48-.67-1.58-1.51,0-.05,0-.1,0-.14,0-3.37-.02-6.74,0-10.11,0-1.01,.68-1.64,1.71-1.67,.89-.02,1.78,0,2.67,0h7.21c.01-.35,.03-.63,.03-.91,0-4.6,0-9.2,0-13.8,0-2.92,.59-5.69,1.99-8.26,2.3-4.2,5.76-6.96,10.37-8.26,1.44-.41,2.92-.58,4.42-.57,3.76,0,7.51,0,11.27,0,.44,0,.87,.03,1.24,.3,.55,.4,.77,.94,.76,1.62-.02,3.18,0,6.36,0,9.54,0,1.31-.63,1.96-1.93,1.97-2.6,0-5.2,0-7.8,0-1.2,0-2.36,.2-3.41,.8-2.2,1.25-3.46,3.14-3.49,5.68-.05,3.78-.02,7.56-.01,11.34Z"/>
</svg>